<?xml version="1.0" standalone="no"?>
<!DOCTYPE svg PUBLIC "-//W3C//DTD SVG 20010904//EN"
 "http://www.w3.org/TR/2001/REC-SVG-20010904/DTD/svg10.dtd">
<svg version="1.0" xmlns="http://www.w3.org/2000/svg"
 width="100.000000pt" height="100.000000pt" viewBox="0 0 100.000000 100.000000"
 preserveAspectRatio="xMidYMid meet">

<g transform="translate(0.000000,100.000000) scale(0.100000,-0.100000)"
fill="#000000" stroke="none">
<path d="M130 825 c-9 -11 -7 -22 11 -55 22 -39 22 -42 7 -68 -13 -22 -26 -28
-64 -32 -41 -4 -49 -9 -55 -30 -15 -54 -10 -70 26 -87 31 -15 35 -21 35 -55 0
-34 -4 -40 -35 -55 -38 -18 -43 -37 -24 -92 11 -32 13 -33 55 -26 42 6 44 5
60 -28 16 -34 16 -36 -6 -72 l-23 -37 36 -35 35 -35 39 22 c39 21 41 21 73 5
31 -16 32 -18 25 -61 -3 -24 -5 -44 -3 -44 2 0 24 -7 50 -15 l47 -14 23 40
c19 35 26 39 60 39 21 0 38 -3 38 -7 0 -5 9 -22 19 -40 l20 -31 48 12 48 13
-3 46 c-3 45 -2 47 31 63 34 16 36 16 67 -6 32 -23 58 -20 67 6 2 5 -27 40
-64 76 l-68 67 -44 -29 c-89 -61 -193 -67 -289 -19 -70 35 -105 71 -140 148
-41 89 -23 219 41 289 l21 23 -69 69 c-38 39 -72 70 -76 70 -4 0 -12 -7 -19
-15z"/>
<path d="M460 783 c-38 -6 -110 -34 -110 -42 0 -4 12 -19 28 -33 20 -19 32
-24 47 -18 36 15 119 10 161 -9 43 -20 85 -66 103 -114 9 -24 8 -33 -9 -54
-44 -56 -9 -133 60 -133 69 0 103 75 60 130 -11 14 -20 34 -20 46 0 34 -49
121 -88 155 -61 54 -159 84 -232 72z m301 -293 c25 -14 24 -45 -2 -64 -17 -11
-25 -12 -40 -3 -24 15 -25 53 -1 66 21 13 20 13 43 1z"/>
</g>
</svg>
